<?xml version="1.0" encoding="UTF-8" standalone="no"?>
<svg width="24px" height="24px" viewBox="0 0 24 24" version="1.1" xmlns="http://www.w3.org/2000/svg" xmlns:xlink="http://www.w3.org/1999/xlink" xmlns:sketch="http://www.bohemiancoding.com/sketch/ns">
    <!-- Generator: Sketch 3.4.4 (17249) - http://www.bohemiancoding.com/sketch -->
    <title>ic_verified_user</title>
    <desc>Created with Sketch.</desc>
    <defs></defs>
    <g id="Page-1" stroke="none" stroke-width="1" fill="none" fill-rule="evenodd" sketch:type="MSPage">
        <g sketch:type="MSLayerGroup">
            <path d="M12.0001008,1.0085042 C18.0608067,1.0085042 22.9916975,5.93939496 22.9916975,12.0001008 C22.9916975,18.0608067 18.0608067,22.9916975 12.0001008,22.9916975 C5.93939496,22.9916975 1.0085042,18.0608067 1.0085042,12.0001008 C1.0085042,5.93939496 5.93939496,1.0085042 12.0001008,1.0085042" id="Path" fill="#FFFFFF" sketch:type="MSShapeGroup"></path>
            <path d="M12.0001008,0.000100840336 C5.37267227,0.000100840336 0.000100840336,5.37267227 0.000100840336,12.0001008 C0.000100840336,18.6275294 5.37267227,24.0001008 12.0001008,24.0001008 C18.6273277,24.0001008 24.0001008,18.6275294 24.0001008,12.0001008 C24.0001008,5.37267227 18.6273277,0.000100840336 12.0001008,0.000100840336 M12.0001008,1.0085042 C18.0608067,1.0085042 22.9916975,5.93939496 22.9916975,12.0001008 C22.9916975,18.0608067 18.0608067,22.9916975 12.0001008,22.9916975 C5.93939496,22.9916975 1.0085042,18.0608067 1.0085042,12.0001008 C1.0085042,5.93939496 5.93939496,1.0085042 12.0001008,1.0085042" id="Fill-1" fill="#0D7AE7" sketch:type="MSShapeGroup"></path>
            <path d="M5.63031933,10.1719664 L9.61996639,14.0141849 L17.9288067,6.27690756 L20.1513277,8.424 L9.61351261,18.2051092 L3.44551261,12.3737143 L5.63031933,10.1719664 Z" id="Fill-4" fill="#0D7AEB" sketch:type="MSShapeGroup"></path>
        </g>
    </g>
</svg>