<?xml version="1.0" encoding="UTF-8" standalone="no"?>
<svg width="32px" height="25px" viewBox="0 0 32 25" version="1.1" xmlns="http://www.w3.org/2000/svg" xmlns:xlink="http://www.w3.org/1999/xlink" xmlns:sketch="http://www.bohemiancoding.com/sketch/ns">
    <!-- Generator: Sketch 3.4.2 (15855) - http://www.bohemiancoding.com/sketch -->
    <title>logo_ps</title>
    <desc>Created with Sketch.</desc>
    <defs></defs>
    <g id="Page-1" stroke="none" stroke-width="1" fill="none" fill-rule="evenodd" sketch:type="MSPage">
        <path d="M11.9634505,0 L11.9634505,23.3249013 L17.1771352,25 L17.1771352,5.44175716 C17.1771352,4.51860192 17.5809424,3.90779245 18.234653,4.11910785 C19.0826481,4.35895854 19.2533138,5.20730503 19.2533138,6.11657823 L19.2533138,13.9267646 C22.4990097,15.5193423 25.0567095,13.9267646 25.0567095,9.7305343 C25.0567095,5.44021471 23.5550037,3.52912142 19.1443621,1.99284304 C17.407991,1.40362784 14.1805807,0.415689783 11.9634505,0 Z M18.1683676,21.5896471 L26.5492724,18.5679911 C27.4986004,18.2155417 27.6418376,17.7288993 26.8768896,17.4743954 C26.0959417,17.2198914 24.7039496,17.2916153 23.7477645,17.6402085 L18.1683676,19.6315091 L18.1683676,16.4532947 L18.4891277,16.3491794 C18.4891277,16.3491794 20.1043566,15.7692189 22.3755818,15.5193423 C24.6414737,15.2656096 27.4186008,15.54942 29.6022075,16.3838845 C32.0639078,17.1759316 32.3366681,18.3312253 31.7187669,19.135612 C31.0833419,19.9292016 29.5534458,20.5022211 29.5534458,20.5022211 L18.1683676,24.6460081 L18.1683676,21.5896471 Z M2.40236191,21.2688179 C-0.120290437,20.5577493 -0.543145178,19.0530911 0.607324479,18.1870064 C1.67017559,17.3880183 3.47968912,16.7934045 3.47968912,16.7934045 L10.9531705,14.0956626 L10.9531705,17.1651345 L5.57796292,19.114789 C4.62711118,19.4579837 4.48235009,19.9461686 5.25339334,20.1999013 C6.03205558,20.4644311 7.41719057,20.3911649 8.36880422,20.0387154 L10.9531705,19.0916523 L10.9531705,21.8318115 C10.7847905,21.8618892 10.5996487,21.8904245 10.4320306,21.9205022 C7.85756902,22.3531589 5.11015605,22.1750062 2.40236191,21.2688179 Z" id="logo_ps" fill="#FFFFFF" sketch:type="MSShapeGroup"></path>
    </g>
</svg>