<?xml version="1.0" encoding="UTF-8" standalone="no"?>
<svg width="73px" height="14px" viewBox="0 0 73 14" version="1.1" xmlns="http://www.w3.org/2000/svg" xmlns:xlink="http://www.w3.org/1999/xlink" xmlns:sketch="http://www.bohemiancoding.com/sketch/ns">
    <!-- Generator: Sketch 3.4.2 (15855) - http://www.bohemiancoding.com/sketch -->
    <title>Group</title>
    <desc>Created with Sketch.</desc>
    <defs></defs>
    <g id="Page-1" stroke="none" stroke-width="1" fill="none" fill-rule="evenodd" sketch:type="MSPage">
        <g id="Grid-with-gutter" sketch:type="MSArtboardGroup" transform="translate(-1567.000000, -21.000000)" fill="#FFFFFF">
            <g id="right" sketch:type="MSLayerGroup" transform="translate(1421.000000, 21.000000)">
                <g id="Group" transform="translate(146.000000, 0.000000)" sketch:type="MSShapeGroup">
                    <path d="M7.232,0.714 C5.848,0.714 4.273,0.972 2.937,1.569 C1.703,2.12 0.693,3.011 0.693,4.487 C0.691,5.815 1.537,6.595 1.514,6.573 C1.875,6.905 2.451,7.468 3.965,7.8 C4.641,7.946 6.086,8.173 7.527,8.325 C8.955,8.476 10.361,8.618 10.934,8.763 C11.389,8.88 12.154,9.036 12.154,9.894 C12.154,10.75 11.348,11.009 11.207,11.065 C11.068,11.12 10.102,11.564 8.367,11.564 C7.084,11.564 5.543,11.179 4.979,10.978 C4.334,10.747 3.652,10.442 3.019,9.669 C2.861,9.476 2.613,8.948 2.613,8.425 L1.043,8.425 L1.043,12.829 L2.789,12.829 L2.789,12.233 C2.789,12.168 2.873,11.888 3.168,12.021 C3.531,12.187 4.604,12.614 5.723,12.847 C6.641,13.038 7.232,13.177 8.375,13.177 C10.238,13.177 11.238,12.875 11.93,12.675 C12.58,12.489 13.387,12.153 14.041,11.632 C14.395,11.351 15.172,10.628 15.172,9.315 C15.172,8.056 14.496,7.274 14.258,7.034 C13.935,6.712 13.539,6.46 13.125,6.267 C12.768,6.097 12.201,5.896 11.734,5.78 C10.836,5.56 8.799,5.286 7.826,5.185 C6.805,5.079 5.033,4.931 4.326,4.712 C4.111,4.648 3.674,4.439 3.674,3.931 C3.674,3.569 3.873,3.263 4.27,3.015 C4.897,2.625 6.164,2.38 7.484,2.38 C9.045,2.375 10.369,2.729 11.209,3.106 C11.496,3.233 11.83,3.418 12.096,3.634 C12.397,3.878 12.818,4.388 12.969,5.097 L14.381,5.097 L14.381,1.263 L12.805,1.263 L12.805,1.709 C12.805,1.853 12.656,2.038 12.375,1.884 C11.672,1.515 9.678,0.716 7.232,0.714" id="Fill-1"></path>
                    <path d="M37.486,2.81 L36.264,2.81 L36.264,1.409 L41.762,1.409 L49.445,8.345 L49.367,3.677 C49.359,3.064 49.246,2.808 48.584,2.808 L47.139,2.808 L47.139,1.411 L53.711,1.411 L53.711,2.808 L52.301,2.808 C51.625,2.808 51.582,3.024 51.574,3.677 L51.693,12.599 L49.443,12.599 L40.592,4.698 L40.594,10.306 C40.602,10.915 40.631,11.202 41.256,11.202 L42.836,11.202 L42.836,12.599 L36.383,12.599 L36.383,11.202 L37.889,11.202 C38.455,11.202 38.43,10.663 38.43,10.273 L38.43,3.729 C38.43,3.306 38.371,2.81 37.486,2.81" id="Fill-2"></path>
                    <path d="M67.518,11.198 L67.518,12.595 L59.852,12.595 L59.852,11.198 L61.221,11.2 L61.609,11.175 C61.76,11.128 61.863,11.021 61.912,10.907 L61.941,10.604 L61.941,8.396 C61.941,8.343 61.938,8.319 61.848,8.202 C61.748,8.073 57.822,3.625 57.643,3.427 C57.42,3.185 57.027,2.808 56.432,2.808 L55.068,2.808 L55.068,1.411 L62.773,1.411 L62.773,2.806 L61.844,2.806 C61.629,2.806 61.488,3.011 61.67,3.235 L64.287,6.37 L64.365,6.38 L67.043,3.241 C67.168,3.091 67.086,2.808 66.815,2.808 L65.863,2.808 L65.861,1.411 L72.178,1.411 L72.178,2.808 L70.768,2.808 C70.256,2.808 70.047,2.901 69.66,3.339 C69.486,3.536 65.518,8.067 65.408,8.189 L65.357,8.396 L65.357,10.604 L65.389,10.905 C65.435,11.019 65.539,11.127 65.69,11.175 L66.074,11.198 L67.518,11.198" id="Fill-3"></path>
                    <path d="M26.16,13.293 C23.57,13.293 21.166,12.517 19.56,11.075 C18.35,9.987 17.768,8.509 17.768,6.989 C17.768,5.485 18.375,3.997 19.56,2.915 C21.051,1.558 23.684,0.706 26.16,0.706 C28.9,0.706 31.096,1.397 32.771,2.919 C33.965,4.003 34.543,5.483 34.543,6.989 C34.543,8.448 33.93,10.002 32.771,11.075 C31.209,12.524 28.756,13.293 26.16,13.293 L26.16,13.293 Z M26.16,11.632 C27.535,11.632 28.809,11.157 29.699,10.273 C30.584,9.392 30.996,8.31 30.996,6.989 C30.996,5.722 30.551,4.538 29.699,3.698 C28.82,2.834 27.516,2.345 26.16,2.345 C24.799,2.345 23.494,2.829 22.615,3.698 C21.768,4.538 21.322,5.726 21.322,6.989 C21.322,8.25 21.772,9.435 22.615,10.273 C23.494,11.147 24.795,11.632 26.16,11.632 L26.16,11.632 Z" id="Fill-4"></path>
                </g>
            </g>
        </g>
    </g>
</svg>