<?xml version="1.0" encoding="UTF-8" standalone="no"?>
<svg width="427px" height="51px" viewBox="0 0 427 51" version="1.1" xmlns="http://www.w3.org/2000/svg" xmlns:xlink="http://www.w3.org/1999/xlink" xmlns:sketch="http://www.bohemiancoding.com/sketch/ns">
    <!-- Generator: Sketch 3.4.4 (17249) - http://www.bohemiancoding.com/sketch -->
    <title>logo_psn</title>
    <desc>Created with Sketch.</desc>
    <defs></defs>
    <g id="Page-1" stroke="none" stroke-width="1" fill="none" fill-rule="evenodd" sketch:type="MSPage">
        <g id="LogIn" sketch:type="MSArtboardGroup" transform="translate(-710.000000, -347.000000)" fill="#FFFFFF">
            <g id="logo_psn" sketch:type="MSLayerGroup" transform="translate(710.000000, 347.000000)">
                <path d="M15.7258908,1.6075625 L0.552027295,1.598 C0.491632754,1.598 0.43971464,1.64475 0.43971464,1.706375 L0.43971464,37.295875 C0.43971464,37.3521875 0.491632754,37.406375 0.552027295,37.406375 L6.7048536,37.406375 C6.75995037,37.406375 6.81080893,37.3521875 6.81080893,37.295875 L6.81822581,5.573875 C6.81822581,5.5451875 6.83305955,5.5175625 6.85213151,5.5175625 C6.85213151,5.5154375 13.8812084,5.505875 13.8812084,5.505875 C16.4400298,5.505875 17.8587717,8.0930625 17.8587717,12.79675 C17.8587717,17.5046875 16.4400298,20.0908125 13.8812084,20.0908125 L9.65676923,20.0908125 C9.59319603,20.0908125 9.54445658,20.138625 9.54445658,20.198125 L9.54445658,23.8903125 C9.54445658,23.950875 9.59319603,24.0008125 9.65676923,24.0008125 L15.7258908,24.0008125 C17.8555931,24.0008125 19.9450323,23.0126875 21.4676104,21.294625 C23.266732,19.2705625 24.2192705,16.339125 24.2192705,12.8265 C24.2192705,6.0095 20.8859156,1.6075625 15.7258908,1.6075625" id="Fill-1" sketch:type="MSShapeGroup"></path>
                <path d="M34.2606576,1.598 L28.1120695,1.598 C28.053794,1.598 28.0029355,1.64475 28.0029355,1.706375 L28.0029355,37.295875 C28.0029355,37.3521875 28.053794,37.406375 28.1120695,37.406375 L34.2606576,37.406375 C34.3199926,37.406375 34.3729702,37.3521875 34.3729702,37.295875 L34.3729702,1.706375 C34.3729702,1.64475 34.3199926,1.598 34.2606576,1.598" id="Fill-2" sketch:type="MSShapeGroup"></path>
                <path d="M61.1065608,10.257375 C61.1065608,10.19575 61.0578213,10.1458125 60.9963672,10.1458125 L50.018335,10.1458125 C40.2047519,10.1458125 38.9460025,17.401625 38.9460025,23.751125 L38.9534194,29.2453125 C38.9534194,33.9755625 41.8830844,37.406375 45.9231613,37.406375 L51.8969231,37.406375 C51.9551985,37.406375 52.0071166,37.3521875 52.0071166,37.295875 L52.0071166,33.6058125 C52.0071166,33.5420625 51.9551985,33.492125 51.8969231,33.492125 L47.6237444,33.4985 C46.6404789,33.4783125 45.3202754,33.0575625 45.3202754,29.67775 L45.3202754,23.7458125 C45.3170968,19.7933125 45.6879404,17.2879375 46.4921414,15.8471875 C47.3758089,14.2640625 48.7733598,14.0536875 50.018335,14.0536875 L54.7068586,14.0536875 C54.7301687,14.0536875 54.7524194,14.0791875 54.7524194,14.1046875 L54.7428834,37.295875 C54.7428834,37.3521875 54.7895037,37.406375 54.8530769,37.406375 L61.0027246,37.406375 C61.0599404,37.406375 61.1097395,37.3521875 61.1097395,37.295875 L61.1065608,10.423125 L61.1065608,10.257375" id="Fill-3" sketch:type="MSShapeGroup"></path>
                <path d="M105.358806,16.5016875 L102.333782,16.271125 C100.06104,16.071375 98.3721117,14.8080625 98.3721117,11.064875 C98.3721117,6.6990625 100.332285,5.5175625 102.93031,5.5175625 L111.30502,5.5175625 C111.365414,5.5175625 111.415213,5.4708125 111.415213,5.406 L111.415213,1.706375 C111.415213,1.64475 111.365414,1.598 111.30502,1.598 L111.131253,1.598 L102.05194,1.6011875 C96.3356501,1.6011875 92.2584888,4.9725 92.2584888,11.69175 L92.2584888,11.9733125 C92.2584888,17.2964375 95.5113176,21.1171875 100.358774,21.4848125 L103.383799,21.7121875 C105.672434,21.8875 107.092236,23.9413125 107.092236,27.078875 L107.092236,27.9618125 C107.092236,29.9274375 106.615437,33.492125 102.430201,33.492125 L93.7259702,33.492125 C93.6655757,33.492125 93.6147171,33.5420625 93.6147171,33.6058125 L93.6147171,37.295875 C93.6147171,37.3521875 93.6655757,37.406375 93.7259702,37.406375 L104.532355,37.406375 C107.866769,37.406375 113.461211,36.0495625 113.461211,26.945 C113.461211,23.6650625 112.698333,21.0555625 111.191648,19.1876875 C109.892635,17.580125 107.98438,16.7025 105.358806,16.5016875" id="Fill-4" sketch:type="MSShapeGroup"></path>
                <path d="M155.761759,10.257375 C155.761759,10.19575 155.714079,10.1458125 155.650506,10.1458125 L144.679891,10.1458125 C134.858891,10.1458125 133.60332,17.401625 133.60332,23.751125 L133.606499,29.2453125 C133.606499,33.9755625 136.537223,37.406375 140.580479,37.406375 L146.553181,37.406375 C146.610397,37.406375 146.662315,37.3521875 146.662315,37.295875 L146.662315,33.6058125 C146.662315,33.5420625 146.610397,33.492125 146.553181,33.492125 L142.275764,33.4985 C141.28932,33.4783125 139.973355,33.0575625 139.966998,29.67775 L139.966998,23.7458125 C139.966998,19.7933125 140.337841,17.2879375 141.14734,15.8471875 C142.029948,14.2640625 143.42538,14.0536875 144.674593,14.0536875 L149.360998,14.0536875 C149.383248,14.0536875 149.40232,14.0791875 149.40232,14.1046875 L149.398082,37.295875 C149.398082,37.3521875 149.446821,37.406375 149.509335,37.406375 L155.652625,37.406375 C155.714079,37.406375 155.761759,37.3521875 155.761759,37.295875 L155.761759,10.257375" id="Fill-5" sketch:type="MSShapeGroup"></path>
                <path d="M131.031784,10.1458125 L124.378849,10.1458125 C124.358717,10.1458125 124.339645,10.125625 124.339645,10.104375 L124.335407,10.078875 L124.339645,5.6301875 C124.339645,5.5685625 124.287727,5.5175625 124.231571,5.5175625 L118.080864,5.5175625 C118.020469,5.5175625 117.97067,5.5685625 117.97067,5.6301875 L117.97067,29.2495625 C117.97067,33.9755625 120.904573,37.406375 124.94571,37.406375 L129.351333,37.406375 C129.415965,37.406375 129.460467,37.3521875 129.460467,37.295875 L129.460467,33.6058125 C129.460467,33.5420625 129.415965,33.492125 129.351333,33.492125 L126.640995,33.492125 C125.956524,33.4783125 124.335407,33.445375 124.335407,29.9656875 L124.335407,14.0791875 C124.335407,14.061125 124.353419,14.042 124.37461,14.042 C126.413191,14.0536875 131.031784,14.042 131.031784,14.042 C131.093238,14.042 131.143037,13.993125 131.143037,13.9315 L131.143037,10.257375 C131.143037,10.19575 131.093238,10.1458125 131.031784,10.1458125" id="Fill-6" sketch:type="MSShapeGroup"></path>
                <path d="M173.97866,10.1458125 L167.325725,10.1458125 C167.301355,10.1458125 167.282283,10.125625 167.282283,10.104375 L167.282283,5.6301875 C167.282283,5.5685625 167.230365,5.5175625 167.175268,5.5175625 L161.029859,5.5175625 C160.965226,5.5175625 160.918605,5.5685625 160.918605,5.6301875 L160.918605,29.2495625 C160.918605,33.9755625 163.84933,37.406375 167.889407,37.406375 L172.300328,37.406375 C172.359663,37.406375 172.407342,37.3521875 172.407342,37.295875 L172.407342,33.6058125 C172.407342,33.5420625 172.359663,33.492125 172.300328,33.492125 L169.59105,33.492125 C168.895983,33.4783125 167.282283,33.445375 167.282283,29.9656875 L167.282283,14.0791875 C167.282283,14.061125 167.297117,14.042 167.321486,14.042 C169.351591,14.0536875 173.97866,14.042 173.97866,14.042 C174.037995,14.042 174.087794,13.993125 174.087794,13.9315 L174.087794,10.257375 C174.087794,10.19575 174.037995,10.1458125 173.97866,10.1458125" id="Fill-7" sketch:type="MSShapeGroup"></path>
                <path d="M184.146134,10.1458125 L177.997546,10.1458125 C177.943509,10.1458125 177.887352,10.19575 177.887352,10.257375 L177.887352,37.295875 C177.887352,37.3521875 177.943509,37.406375 177.997546,37.406375 L184.146134,37.406375 C184.205469,37.406375 184.257387,37.3521875 184.257387,37.295875 L184.257387,10.257375 C184.257387,10.19575 184.205469,10.1458125 184.146134,10.1458125" id="Fill-8" sketch:type="MSShapeGroup"></path>
                <path d="M184.146134,1.598 L177.997546,1.598 C177.943509,1.598 177.887352,1.64475 177.887352,1.706375 L177.887352,6.87225 C177.887352,6.9306875 177.943509,6.9795625 177.997546,6.9795625 L184.146134,6.9795625 C184.205469,6.9795625 184.257387,6.9306875 184.257387,6.87225 L184.257387,1.706375 C184.257387,1.64475 184.205469,1.598 184.146134,1.598" id="Fill-9" sketch:type="MSShapeGroup"></path>
                <path d="M226.668129,10.1458125 L215.691156,10.1458125 C215.63606,10.1458125 215.584141,10.19575 215.584141,10.257375 L215.584141,37.295875 C215.584141,37.3521875 215.63606,37.406375 215.691156,37.406375 L221.839744,37.406375 C221.901199,37.406375 221.950998,37.3521875 221.950998,37.295875 L221.940402,14.0961875 C221.940402,14.0749375 221.957355,14.0536875 221.982784,14.0536875 L226.668129,14.0536875 C227.918402,14.0536875 229.320191,14.248125 230.198561,15.7133125 C231.00594,17.0456875 231.378903,19.3683125 231.378903,23.035 C231.383141,23.1954375 231.375725,37.295875 231.375725,37.295875 C231.375725,37.3521875 231.424464,37.406375 231.486978,37.406375 L237.631328,37.406375 C237.694901,37.406375 237.7447,37.3521875 237.7447,37.295875 L237.7447,23.751125 C237.7447,17.401625 236.478533,10.1458125 226.668129,10.1458125" id="Fill-10" sketch:type="MSShapeGroup"></path>
                <path d="M199.929241,10.1458125 C189.661109,10.1458125 188.343025,17.435625 188.343025,23.780875 C188.343025,30.134625 189.661109,37.4255 199.929241,37.4255 C210.199491,37.4255 211.516516,30.134625 211.516516,23.780875 C211.516516,17.435625 210.199491,10.1458125 199.929241,10.1458125 L199.929241,10.1458125 Z M203.835814,31.7103125 C202.861025,33.3019375 201.316196,33.51975 199.929241,33.51975 C198.549702,33.51975 197.008052,33.3019375 196.030084,31.7103125 C195.146417,30.266375 194.733191,27.74825 194.733191,23.780875 L194.733191,23.75325 C194.733191,19.059125 195.312767,16.398625 196.606481,15.119375 C197.366181,14.371375 198.367459,14.0536875 199.929241,14.0536875 C201.504797,14.0536875 202.49336,14.371375 203.259417,15.119375 C204.55737,16.398625 205.132707,19.06975 205.128469,23.780875 C205.128469,27.74825 204.72372,30.270625 203.835814,31.7103125 L203.835814,31.7103125 Z" id="Fill-11" sketch:type="MSShapeGroup"></path>
                <path d="M64.5702407,10.1458125 C64.507727,10.1458125 64.4748809,10.1925625 64.4918337,10.251 L73.6082308,37.0483125 C73.6294218,37.1056875 73.6209454,37.1970625 73.6082308,37.2565625 L68.4757543,50.538875 C68.459861,50.598375 68.4937667,50.6461875 68.5488635,50.6461875 L73.8953697,50.6461875 C73.9589429,50.6461875 74.0246352,50.598375 74.0447667,50.538875 L90.0705112,10.251 C90.0948809,10.1925625 90.0630943,10.1458125 90.0037593,10.1458125 L84.168799,10.1458125 C84.1084045,10.1458125 84.0395335,10.1925625 84.0151638,10.251 L77.2255459,27.85875 C77.2054144,27.9150625 77.16833,27.9150625 77.1481985,27.85875 L71.1723176,10.251 C71.1543052,10.1925625 71.0864938,10.1458125 71.0229206,10.1458125 L64.5702407,10.1458125" id="Fill-12" sketch:type="MSShapeGroup"></path>
                <path d="M241.985032,33.1595625 L240.410536,33.1595625 L240.410536,32.6155625 L244.168772,32.6155625 L244.168772,33.1595625 L242.60805,33.1595625 L242.60805,37.4085 L241.985032,37.4085 L241.985032,33.1595625" id="Fill-13" sketch:type="MSShapeGroup"></path>
                <path d="M246.7117,37.4085 L245.402092,33.513375 L245.402092,37.4085 L244.776955,37.4085 L244.776955,32.6155625 L245.646849,32.6155625 L247.024268,36.6976875 L248.405926,32.6155625 L249.271581,32.6155625 L249.271581,37.4085 L248.648563,37.4085 L248.648563,33.513375 L247.341074,37.4085 L246.7117,37.4085" id="Fill-14" sketch:type="MSShapeGroup"></path>
                <path d="M274.812114,32.7919375 L274.912772,32.7919375 L274.912772,1.5799375 L279.02066,1.5799375 L279.02066,37.4085 L272.609303,37.4085 L256.931092,5.9468125 L256.830434,5.9468125 L256.830434,37.4085 L252.722546,37.4085 L252.722546,1.5799375 L259.28436,1.5799375 L274.812114,32.7919375" id="Fill-15" sketch:type="MSShapeGroup"></path>
                <path d="M286.554084,25.315125 C286.687588,28.0914375 287.572315,30.3418125 289.209325,32.0651875 C290.844216,33.7875 293.116958,34.648125 296.022253,34.648125 C297.189881,34.648125 298.391414,34.5408125 299.627913,34.323 C300.862293,34.1051875 301.999194,33.779 303.033318,33.3444375 L303.734742,36.60525 C302.632806,37.074875 301.387831,37.4244375 300.002995,37.65925 C298.617099,37.893 297.223787,38.009875 295.820938,38.009875 C293.616007,37.9769375 291.705633,37.63375 290.085576,36.9824375 C288.466578,36.329 287.070087,35.3685 285.902459,34.0966875 C284.733772,32.824875 283.865998,31.3448125 283.299136,29.6554375 C282.730156,27.967125 282.446196,26.1513125 282.446196,24.2111875 C282.446196,22.204125 282.72168,20.355375 283.273707,18.666 C283.824675,16.9776875 284.617221,15.5050625 285.653464,14.25025 C286.687588,12.9954375 287.938921,12.025375 289.409581,11.3400625 C290.878122,10.65475 292.531025,10.3115625 294.36829,10.3115625 C296.205556,10.3115625 297.816077,10.62075 299.200913,11.2401875 C300.586809,11.859625 301.731127,12.72875 302.632806,13.848625 C303.534486,14.9695625 304.211541,16.33275 304.661851,17.93925 C305.111102,19.5446875 305.337846,21.318 305.337846,23.258125 L305.337846,25.315125 L286.554084,25.315125 L286.554084,25.315125 Z M294.418089,13.6733125 C292.11462,13.6733125 290.285831,14.426625 288.933841,15.931125 C287.581851,17.43775 286.787186,19.44375 286.554084,21.953375 L301.480012,21.953375 L301.480012,21.7525625 C301.447166,19.2110625 300.795541,17.2369375 299.526196,15.83125 C298.257911,14.426625 296.554149,13.7073125 294.418089,13.6733125 L294.418089,13.6733125 Z" id="Fill-16" sketch:type="MSShapeGroup"></path>
                <path d="M306.987571,10.9129375 L311.696226,10.9129375 L311.696226,4.239375 L315.954571,4.239375 L315.954571,10.9129375 L322.065015,10.9129375 L322.065015,14.2746875 L315.954571,14.2746875 L315.954571,30.1325 C315.954571,31.035625 315.987417,31.7634375 316.054169,32.314875 C316.120921,32.867375 316.271377,33.3019375 316.504479,33.619625 C316.73864,33.938375 317.080876,34.146625 317.531186,34.2475625 C317.981496,34.3474375 318.573787,34.397375 319.310176,34.397375 C319.877037,34.397375 320.36973,34.380375 320.788253,34.3474375 C321.203598,34.3145 321.647551,34.2645625 322.114814,34.1965625 L322.114814,37.4085 C321.647551,37.4754375 321.038308,37.5498125 320.286025,37.63375 C319.534801,37.716625 318.809007,37.7601875 318.108643,37.7601875 C316.73864,37.7601875 315.636705,37.6008125 314.801777,37.283125 C313.966849,36.9654375 313.316283,36.479875 312.84902,35.8275 C312.379638,35.175125 312.071308,34.397375 311.92297,33.49425 C311.772514,32.591125 311.696226,31.554125 311.696226,30.38325 L311.696226,14.2746875 L306.987571,14.2746875 L306.987571,10.9129375" id="Fill-17" sketch:type="MSShapeGroup"></path>
                <path d="M351.537551,33.7460625 L351.637149,33.7460625 L357.39794,10.9129375 L361.956139,10.9129375 L354.241531,37.4085 L348.782712,37.4085 L343.172377,14.426625 L343.07172,14.426625 L337.311988,37.4085 L331.801251,37.4085 L324.18836,10.9129375 L328.796357,10.9129375 L334.556089,33.7460625 L334.657806,33.7460625 L340.217283,10.9129375 L346.027873,10.9129375 L351.537551,33.7460625" id="Fill-18" sketch:type="MSShapeGroup"></path>
                <path d="M386.721079,24.1113125 C386.721079,26.28625 386.437119,28.2253125 385.869199,29.9316875 C385.300218,31.637 384.483303,33.092625 383.415273,34.2964375 C382.346184,35.502375 381.062005,36.4225 379.558499,37.0568125 C378.054993,37.6921875 376.35335,38.009875 374.449333,38.009875 C372.545315,38.009875 370.843672,37.6921875 369.340166,37.0568125 C367.83666,36.4225 366.551422,35.502375 365.482333,34.2964375 C364.414303,33.092625 363.596328,31.637 363.029467,29.9316875 C362.460486,28.2253125 362.176526,26.28625 362.176526,24.1113125 C362.176526,21.970375 362.468963,20.03875 363.052777,18.315375 C363.636591,16.5930625 364.446089,15.1459375 365.482333,13.974 C366.517516,12.8041875 367.803814,11.9010625 369.340166,11.264625 C370.875459,10.62925 372.578161,10.3115625 374.449333,10.3115625 C376.35335,10.3115625 378.063469,10.62925 379.583928,11.264625 C381.102268,11.9010625 382.388566,12.8041875 383.439643,13.974 C384.492839,15.1459375 385.300218,16.5930625 385.869199,18.315375 C386.437119,20.03875 386.721079,21.970375 386.721079,24.1113125 L386.721079,24.1113125 Z M382.463794,24.1113125 C382.463794,22.5728125 382.303801,21.1681875 381.988055,19.896375 C381.669129,18.6245625 381.185973,17.529125 380.534347,16.609 C379.883782,15.6899375 379.047794,14.9695625 378.030623,14.4510625 C377.012392,13.9325625 375.817216,13.6733125 374.449333,13.6733125 C373.07933,13.6733125 371.886273,13.9325625 370.866983,14.4510625 C369.847692,14.9695625 369.014883,15.6899375 368.362199,16.609 C367.711633,17.529125 367.227417,18.6245625 366.91061,19.896375 C366.591685,21.1681875 366.434871,22.5728125 366.434871,24.1113125 C366.434871,25.6498125 366.601221,27.064 366.93604,28.35175 C367.26768,29.6395 367.761432,30.7519375 368.414117,31.688 C369.064682,32.625125 369.891134,33.3529375 370.892412,33.870375 C371.894749,34.3899375 373.07933,34.648125 374.449333,34.648125 C375.817216,34.648125 377.012392,34.3899375 378.030623,33.870375 C379.047794,33.3529375 379.883782,32.625125 380.534347,31.688 C381.185973,30.7519375 381.669129,29.6395 381.988055,28.35175 C382.303801,27.064 382.463794,25.6498125 382.463794,24.1113125 L382.463794,24.1113125 Z" id="Fill-19" sketch:type="MSShapeGroup"></path>
                <path d="M402.666298,13.8241875 C402.065531,13.72325 401.330201,13.6733125 400.463486,13.6733125 C399.561806,13.6733125 398.735355,13.81675 397.984132,14.1004375 C397.231849,14.3851875 396.56433,14.8526875 395.980516,15.5050625 C395.394583,16.1574375 394.945333,17.002125 394.627467,18.039125 C394.3096,19.076125 394.151727,20.363875 394.151727,21.902375 L394.151727,37.4085 L389.893382,37.4085 L389.893382,10.9129375 L394.00127,10.9129375 L394.00127,14.4765625 L394.051069,14.4765625 C394.685742,13.070875 395.571529,12.025375 396.70631,11.3400625 C397.842151,10.65475 399.260893,10.3115625 400.964655,10.3115625 C401.197757,10.3115625 401.514563,10.3200625 401.916134,10.336 C402.317705,10.3540625 402.633452,10.3795625 402.866553,10.4114375 L402.666298,13.8241875" id="Fill-20" sketch:type="MSShapeGroup"></path>
                <path d="M426.009318,10.9129375 L414.438995,22.7555625 L426.509427,37.4085 L421.049548,37.4085 L409.879737,23.5078125 L409.780139,23.5078125 L409.780139,37.4085 L405.521794,37.4085 L405.521794,0.5259375 L409.780139,0.5259375 L409.780139,22.355 L409.879737,22.355 L420.599238,10.9129375 L426.009318,10.9129375" id="Fill-21" sketch:type="MSShapeGroup"></path>
            </g>
        </g>
    </g>
</svg>